<svg width="421" height="430" viewBox="0 0 421 430" fill="none" xmlns="http://www.w3.org/2000/svg">
<path d="M210.5 269.167V312.5M91.4375 172.291C102.663 171.667 116.502 171.667 134.3 171.667H286.7C304.497 171.667 318.337 171.667 329.562 172.291M91.4375 172.291C77.4281 173.068 67.489 174.819 59.0056 178.752C45.5637 184.983 34.6352 194.926 27.7862 207.157C20 221.062 20 239.262 20 275.667V306C20 342.404 20 360.604 27.7862 374.51C34.6352 386.741 45.5637 396.684 59.0056 402.915C74.2868 410 94.2912 410 134.3 410H286.7C326.71 410 346.712 410 361.995 402.915C375.437 396.684 386.365 386.741 393.213 374.51C401 360.604 401 342.404 401 306V275.667C401 239.262 401 221.062 393.213 207.157C386.365 194.926 375.437 184.983 361.995 178.752C353.511 174.819 343.571 173.068 329.562 172.291M91.4375 172.291V128.333C91.4375 68.5026 144.744 20 210.5 20C276.256 20 329.562 68.5026 329.562 128.333V172.291" stroke="#0E1041" stroke-width="40" stroke-linecap="round" stroke-linejoin="round"/>
</svg>
